<?xml version="1.0" encoding="UTF-8"?>
<svg style="enable-background:new 0 0 256 256" version="1.1" viewBox="0 0 256 256" xml:space="preserve" xmlns="http://www.w3.org/2000/svg">
<style type="text/css">
	svg { background-color: #FFFFFF; }
	.st0{fill:#FFC53A;}
	.st1{fill-rule:evenodd;clip-rule:evenodd;fill:#FFFFFF;}
	.st2{fill-rule:evenodd;clip-rule:evenodd;fill:#010101;}
	.st3{fill-rule:evenodd;clip-rule:evenodd;}
	.st4{fill-rule:evenodd;clip-rule:evenodd;fill:#000101;}
	.st5{fill-rule:evenodd;clip-rule:evenodd;fill:#000405;}
	.st6{fill-rule:evenodd;clip-rule:evenodd;fill:#B2B2B2;}
	.st7{fill-rule:evenodd;clip-rule:evenodd;fill:#0067E9;}
	.st8{fill-rule:evenodd;clip-rule:evenodd;fill:#010203;}
	.st9{fill-rule:evenodd;clip-rule:evenodd;fill:#000001;}
	.st10{fill-rule:evenodd;clip-rule:evenodd;fill:#00C1FD;}
	.st11{fill:#B2B2B2;}
	.st12{fill-rule:evenodd;clip-rule:evenodd;fill:#AFAFAF;}
	.st13{fill-rule:evenodd;clip-rule:evenodd;fill:#010001;}
	.st14{fill-rule:evenodd;clip-rule:evenodd;fill:#010000;}
	.st15{fill-rule:evenodd;clip-rule:evenodd;fill:#467173;}
	.st16{fill-rule:evenodd;clip-rule:evenodd;fill:#020202;}
	.st17{fill-rule:evenodd;clip-rule:evenodd;fill:#FEFFFF;}
	.st18{fill-rule:evenodd;clip-rule:evenodd;fill:#FDFEFE;}
	.st19{fill:#FFFFFF;}
	.st20{opacity:0.05;fill:url(#);}
	.st21{fill-rule:evenodd;clip-rule:evenodd;fill:#000203;}
	.st22{fill-rule:evenodd;clip-rule:evenodd;fill:#040404;}
	.st23{fill-rule:evenodd;clip-rule:evenodd;fill:#010405;}
	.st24{fill-rule:evenodd;clip-rule:evenodd;fill:#010202;}
	.st25{fill-rule:evenodd;clip-rule:evenodd;fill:#010102;}
	.st26{fill-rule:evenodd;clip-rule:evenodd;fill:#000202;}
	.st27{fill-rule:evenodd;clip-rule:evenodd;fill:#020203;}
	.st28{fill-rule:evenodd;clip-rule:evenodd;fill:#030303;}
	.st29{fill:#080808;stroke:#000000;stroke-width:0.0611;stroke-miterlimit:10;}
	.st30{fill:#101010;stroke:#000000;stroke-width:0.1222;stroke-miterlimit:10;}
	.st31{fill:#191919;stroke:#000000;stroke-width:0.1833;stroke-miterlimit:10;}
	.st32{fill:#212121;stroke:#000000;stroke-width:0.2444;stroke-miterlimit:10;}
	.st33{fill:#292929;stroke:#000000;stroke-width:0.3055;stroke-miterlimit:10;}
	.st34{fill:#313131;stroke:#000000;stroke-width:0.3666;stroke-miterlimit:10;}
	.st35{fill:#3A3A3A;stroke:#000000;stroke-width:0.4277;stroke-miterlimit:10;}
	.st36{fill:#424242;stroke:#000000;stroke-width:0.4888;stroke-miterlimit:10;}
	.st37{fill:#4A4A4A;stroke:#000000;stroke-width:0.5499;stroke-miterlimit:10;}
	.st38{fill:#525252;stroke:#000000;stroke-width:0.611;stroke-miterlimit:10;}
	.st39{fill:#5A5A5A;stroke:#000000;stroke-width:0.6721;stroke-miterlimit:10;}
	.st40{fill:#636363;stroke:#000000;stroke-width:0.7332;stroke-miterlimit:10;}
	.st41{fill:#6B6B6B;stroke:#000000;stroke-width:0.7943;stroke-miterlimit:10;}
	.st42{fill:#737373;stroke:#000000;stroke-width:0.8554;stroke-miterlimit:10;}
	.st43{fill:#7B7B7B;stroke:#000000;stroke-width:0.9165;stroke-miterlimit:10;}
	.st44{fill:#848484;stroke:#000000;stroke-width:0.9776;stroke-miterlimit:10;}
	.st45{fill:#8C8C8C;stroke:#000000;stroke-width:1.0387;stroke-miterlimit:10;}
	.st46{fill:#949494;stroke:#000000;stroke-width:1.0999;stroke-miterlimit:10;}
	.st47{fill:#9C9C9C;stroke:#000000;stroke-width:1.161;stroke-miterlimit:10;}
	.st48{fill:#A5A5A5;stroke:#000000;stroke-width:1.2221;stroke-miterlimit:10;}
	.st49{fill:#ADADAD;stroke:#000000;stroke-width:1.2832;stroke-miterlimit:10;}
	.st50{fill:#B5B5B5;stroke:#000000;stroke-width:1.3443;stroke-miterlimit:10;}
	.st51{fill:#BDBDBD;stroke:#000000;stroke-width:1.4054;stroke-miterlimit:10;}
	.st52{fill:#C5C5C5;stroke:#000000;stroke-width:1.4665;stroke-miterlimit:10;}
	.st53{fill:#CECECE;stroke:#000000;stroke-width:1.5276;stroke-miterlimit:10;}
	.st54{fill:#D6D6D6;stroke:#000000;stroke-width:1.5887;stroke-miterlimit:10;}
	.st55{fill:#DEDEDE;stroke:#000000;stroke-width:1.6498;stroke-miterlimit:10;}
	.st56{fill:#E6E6E6;stroke:#000000;stroke-width:1.7109;stroke-miterlimit:10;}
	.st57{fill:#EFEFEF;stroke:#000000;stroke-width:1.772;stroke-miterlimit:10;}
	.st58{fill:#F7F7F7;stroke:#000000;stroke-width:1.8331;stroke-miterlimit:10;}
	.st59{fill:#FFFFFF;stroke:#000000;stroke-width:1.8942;stroke-miterlimit:10;}
	.st60{fill:none;stroke:#FFFFFF;stroke-width:8.7829;}
	.st61{fill:none;stroke:#161032;stroke-width:8.7829;}
	.st62{fill-rule:evenodd;clip-rule:evenodd;fill:#010303;}
	.st63{fill-rule:evenodd;clip-rule:evenodd;fill:#256472;}
	.st64{opacity:0.75;fill:none;stroke:#FFFFFF;stroke-width:1.1304;}
</style>
<rect width="100%" height="100%" fill="#fff"/>
<path class="st0" d="M0,0v256h256V0H0z M227.96,202.98l-27.13,25.41L55.12,226.4L29.62,200L26.63,55.5h2.58l28.22-25.62h143.39  l27.13,27.13V202.98z"/>
<path class="st3" d="m42.01 53.13h-7.04c-0.91 0-1.65-0.74-1.65-1.65v-7.04c0-0.91 0.74-1.65 1.65-1.65h7.04c0.91 0 1.65 0.74 1.65 1.65v7.04c0 0.91-0.74 1.65-1.65 1.65z"/>
<path class="st3" d="m33.83 202.98h-7.04c-0.91 0-1.65-0.74-1.65-1.65v-147.84c0-0.91 0.74-1.65 1.65-1.65h7.04c0.91 0 1.65 0.74 1.65 1.65v147.85c0 0.9-0.74 1.64-1.65 1.64z"/>
<path class="st3" d="m60.96 35.04h-7.04c-0.91 0-1.65-0.74-1.65-1.65v-7.04c0-0.91 0.74-1.65 1.65-1.65h7.04c0.91 0 1.65 0.74 1.65 1.65v7.04c-0.01 0.92-0.74 1.65-1.65 1.65z"/>
<path class="st3" d="m205.64 35.04h-151.72c-0.91 0-1.65-0.74-1.65-1.65v-7.04c0-0.91 0.74-1.65 1.65-1.65h151.72c0.91 0 1.65 0.74 1.65 1.65v7.04c0 0.92-0.74 1.65-1.65 1.65z"/>
<path class="st3" d="m51.48 43.66h-7.04c-0.91 0-1.65-0.74-1.65-1.65v-7.04c0-0.91 0.74-1.65 1.65-1.65h7.04c0.91 0 1.65 0.74 1.65 1.65v7.04c0 0.91-0.74 1.65-1.65 1.65z"/>
<path class="st3" d="m216.26 53.13h7.04c0.91 0 1.65-0.74 1.65-1.65v-7.04c0-0.91-0.74-1.65-1.65-1.65h-7.04c-0.91 0-1.65 0.74-1.65 1.65v7.04c0 0.91 0.74 1.65 1.65 1.65z"/>
<path class="st3" d="m224.44 62.17h7.04c0.91 0 1.65-0.74 1.65-1.65v-7.04c0-0.91-0.74-1.65-1.65-1.65h-7.04c-0.91 0-1.65 0.74-1.65 1.65v7.04c0 0.92 0.74 1.65 1.65 1.65z"/>
<path class="st3" d="m206.78 43.66h7.04c0.91 0 1.65-0.74 1.65-1.65v-7.04c0-0.91-0.74-1.65-1.65-1.65h-7.04c-0.91 0-1.65 0.74-1.65 1.65v7.04c0.01 0.91 0.74 1.65 1.65 1.65z"/>
<path class="st3" d="m216.26 205.14h7.04c0.91 0 1.65 0.74 1.65 1.65v7.04c0 0.91-0.74 1.65-1.65 1.65h-7.04c-0.91 0-1.65-0.74-1.65-1.65v-7.04c0-0.92 0.74-1.65 1.65-1.65z"/>
<path class="st3" d="m224.44 59.16h7.04c0.91 0 1.65 0.74 1.65 1.65v143.97c0 0.91-0.74 1.65-1.65 1.65h-7.04c-0.91 0-1.65-0.74-1.65-1.65v-143.97c0-0.91 0.74-1.65 1.65-1.65z"/>
<path class="st3" d="m197.31 223.22h7.04c0.91 0 1.65 0.74 1.65 1.65v7.04c0 0.91-0.74 1.65-1.65 1.65h-7.04c-0.91 0-1.65-0.74-1.65-1.65v-7.04c0-0.91 0.74-1.65 1.65-1.65z"/>
<path class="st3" d="m52.63 223.22h151.72c0.91 0 1.65 0.74 1.65 1.65v7.04c0 0.91-0.74 1.65-1.65 1.65h-151.72c-0.91 0-1.65-0.74-1.65-1.65v-7.04c0-0.91 0.74-1.65 1.65-1.65z"/>
<path class="st3" d="m206.78 214.61h7.04c0.91 0 1.65 0.74 1.65 1.65v7.04c0 0.91-0.74 1.65-1.65 1.65h-7.04c-0.91 0-1.65-0.74-1.65-1.65v-7.04c0.01-0.91 0.74-1.65 1.65-1.65z"/>
<path class="st3" d="m42.01 205.14h-7.04c-0.91 0-1.65 0.74-1.65 1.65v7.04c0 0.91 0.74 1.65 1.65 1.65h7.04c0.91 0 1.65-0.74 1.65-1.65v-7.04c0-0.92-0.74-1.65-1.65-1.65z"/>
<path class="st3" d="m33.83 196.09h-7.04c-0.91 0-1.65 0.74-1.65 1.65v7.04c0 0.91 0.74 1.65 1.65 1.65h7.04c0.91 0 1.65-0.74 1.65-1.65v-7.04c0-0.91-0.74-1.65-1.65-1.65z"/>
<path class="st3" d="m51.48 214.61h-7.04c-0.91 0-1.65 0.74-1.65 1.65v7.04c0 0.91 0.74 1.65 1.65 1.65h7.04c0.91 0 1.65-0.74 1.65-1.65v-7.04c0-0.91-0.74-1.65-1.65-1.65z"/>
<path class="st11" d="m57.89 198.51h-2.72c-1.07 0-1.95-0.87-1.95-1.95v-48.62c0-1.07 0.87-1.95 1.95-1.95h2.72c1.07 0 1.95 0.87 1.95 1.95v48.62c0 1.08-0.87 1.95-1.95 1.95z"/>
<path class="st11" d="m58.85 202.18v-2.72c0-1.07 0.87-1.95 1.95-1.95h32.85c1.07 0 1.95 0.87 1.95 1.95v2.72c0 1.07-0.87 1.95-1.95 1.95h-32.86c-1.07-0.01-1.94-0.88-1.94-1.95z"/>

	
		<path class="st6" d="m79.3 107.11c-0.01-2.27-0.02-4.53-0.03-6.8-0.93-2.2-0.61-4.43-0.19-6.67 0.91-1.17 2.21-0.9 3.42-0.92 3.65-0.04 3.32 0.27 3.36-3.39 0.01-1.21-0.26-2.52 0.93-3.42 0.84-0.42 1.75-0.31 2.64-0.31 2.8-0.01 5.59-0.02 8.39 0 0.83 0 1.7-0.07 2.39 0.55l-0.03-0.03c0.93 2.33 0.73 4.69 0.15 7.05-1.23 0.95-2.68 0.51-4.03 0.55-2.28 0.08-2.27 0.08-2.35 2.36-0.05 1.42 0.34 2.9-0.44 4.25-1.46 0.89-3.07 0.4-4.61 0.48-1.89 0.1-1.95 0.15-2.04 2.02-0.08 1.55 0.36 3.15-0.42 4.64-2.31 0.77-4.64 0.56-6.97 0.16-0.21-0.11-0.27-0.29-0.17-0.52z"/>
		<path class="st6" d="m176.73 100.33c-0.2 2.25-0.09 4.5-0.07 6.75 0.01 0.24-0.09 0.41-0.29 0.54-2.22 0.43-4.44 0.59-6.64-0.1-0.82-1.35-0.41-2.85-0.46-4.28-0.08-2.39-0.04-2.36-2.48-2.42-1.38-0.04-2.82 0.33-4.12-0.43-0.87-1.39-0.43-2.93-0.48-4.4-0.08-2.16-0.09-2.18-2.29-2.25-1.36-0.05-2.8 0.37-4.06-0.52-0.62-2.38-0.84-4.74 0.12-7.09l-0.03 0.03c0.54-0.49 1.21-0.55 1.89-0.55 3.36-0.02 6.72-0.02 10.09 0 0.68 0 1.35 0.06 1.89 0.55l-0.03-0.03c0.93 1.32 0.47 2.82 0.52 4.24 0.09 2.29 0.08 2.29 2.37 2.36 1.31 0.04 2.7-0.37 3.9 0.52l-0.03-0.03c0.87 2.34 0.54 4.72 0.2 7.11z"/>
		<path class="st6" d="m79.27 155.72c0.01-2.26 0.01-4.51 0.02-6.77 0.08-0.07 0.16-0.14 0.24-0.22 2.31-0.41 4.61-0.59 6.9 0.12 0.61 0.85 0.44 1.83 0.45 2.77 0.04 3.98-0.35 3.52 3.66 3.58 0.99 0.01 2.03-0.18 2.94 0.44 0.86 1.39 0.42 2.93 0.48 4.4 0.09 2.17 0.09 2.18 2.29 2.25 1.36 0.05 2.8-0.37 4.06 0.51 0.65 2.27 0.78 4.52-0.09 6.76l0.02-0.03c-0.55 0.48-1.22 0.54-1.9 0.54-3.37 0.02-6.73 0.02-10.1 0-0.68 0-1.35-0.06-1.89-0.55l0.02 0.04c-0.88-1.27-0.45-2.71-0.5-4.08-0.08-2.08-0.12-2.1-2.2-2.2-1.48-0.07-3.03 0.43-4.41-0.52l0.03 0.03c-0.88-2.34-0.85-4.71-0.02-7.07z"/>
		<path class="st6" d="m176.57 148.91c0.01 4.64 0.01 9.28 0.02 13.91-1.4 0.86-2.96 0.45-4.44 0.46-1.36 0.01-1.88 0.49-1.89 1.87-0.01 1.48 0.43 3.04-0.49 4.42l0.02-0.04c-0.55 0.49-1.22 0.54-1.9 0.55-3.37 0.02-6.73 0.02-10.1 0-0.68 0-1.35-0.06-1.9-0.54l0.02 0.03c-0.9-2.23-0.69-4.47-0.13-6.73 1.24-0.95 2.68-0.5 4.03-0.55 2.28-0.08 2.27-0.08 2.35-2.36 0.04-1.42-0.34-2.9 0.43-4.25 1.4-0.87 2.95-0.42 4.44-0.48 2.11-0.09 2.15-0.11 2.22-2.18 0.05-1.38-0.32-2.81 0.41-4.13 2.19-0.81 4.41-0.53 6.63-0.19 0.11 0.07 0.2 0.14 0.28 0.21z"/>
		<path class="st2" d="m114.04 176.65c0-2.36 0.01-4.73 0.01-7.1 0.08-0.07 0.16-0.15 0.24-0.22 0.84-0.42 1.75-0.31 2.64-0.31 7.29-0.01 14.57 0 21.86-0.01 2.36 0 2.34-0.08 2.47-2.48 0.05-1.06-0.6-2.4 0.86-3.1 0.78 2.03 0.79 4.06 0 6.1-0.43 1.42-0.13 2.87-0.2 4.3-0.04 0.94 0 1.89 0 2.83-0.54 0.54-1.24 0.45-1.91 0.45-7.86 0.09-15.71 0.1-23.57 0.07-0.83 0-1.7 0.12-2.4-0.53z"/>
		<path class="st3" d="m72.51 141.86c-1.96 0.01-3.93-0.01-5.89 0.03-0.81 0.02-1.19-0.15-1.18-1.1 0.04-8.53 0.04-17.05 0-25.58-0.01-0.98 0.41-1.1 1.2-1.08 1.96 0.04 3.92 0.03 5.89 0.04 0.07 0.08 0.15 0.16 0.22 0.25 0.28 0.51 0.3 1.07 0.3 1.63 0 6.31 0.06 12.62-0.03 18.92-0.09 2.22 0.32 4.46-0.28 6.65-0.08 0.09-0.15 0.16-0.23 0.24z"/>
		<path class="st4" d="m183.61 114.18c1.97-0.01 3.93 0.01 5.9-0.06 0.83-0.03 1.05 0.28 1.05 1.07-0.02 4.1 0.01 8.2 0.01 12.3 0 4.32-0.01 8.65-0.03 12.97 0 1.39-0.02 1.41-1.34 1.41-1.85 0.01-3.71-0.01-5.56-0.01-0.07-0.08-0.15-0.16-0.22-0.24-0.28-0.51-0.3-1.07-0.3-1.63 0.01-6.31-0.07-12.62 0.03-18.93 0.09-2.21-0.3-4.44 0.26-6.64 0.06-0.08 0.13-0.16 0.2-0.24z"/>
		<path class="st3" d="m114.08 86.15c0-2.26-0.01-4.52-0.01-6.79l0.24-0.21c2.31-0.59 4.65-0.18 6.98-0.27 6.24-0.1 12.48-0.04 18.73-0.03 0.62 0 1.24 0.02 1.76 0.45 0.31 2.06 0.06 4.13 0.14 6.2 0.02 0.63-0.32 0.91-0.88 1.02-0.44 0.09-0.89 0.08-1.34 0.08-7.84 0.01-15.69 0.01-23.53 0-0.61 0-1.24 0.05-1.82-0.23-0.1-0.07-0.18-0.14-0.27-0.22z"/>
		<path class="st3" d="m114.08 72.31c0-1.85 0-3.7 0.01-5.56 0.01-1.25 0.03-1.26 1.32-1.27 2.75-0.01 5.5 0 8.25 0 5.45 0 10.89 0 16.33 0.01 0.61 0 1.24-0.12 1.83 0.13 0.19 1.96 0.02 3.92 0.09 5.87 0.03 0.77-0.34 1.13-1.06 1.22-0.44 0.05-0.89 0.05-1.34 0.05h-23.19c-0.67 0-1.35 0.07-1.99-0.23-0.08-0.07-0.16-0.15-0.25-0.22z"/>
		<path class="st3" d="m142.07 183.6c-0.36 1.84-0.08 3.69-0.16 5.53-0.05 1.38-0.03 1.4-1.37 1.4-8.37 0.01-16.74 0.01-25.11 0-1.32 0-1.32-0.02-1.34-1.42-0.02-1.8-0.03-3.59-0.04-5.39 0.58-0.57 1.33-0.53 2.05-0.53 8.12-0.04 16.23-0.01 24.35 0.07 0.57 0 1.13-0.01 1.62 0.34z"/>
		<path class="st12" d="m142.07 183.6c-2.18 0.22-4.36 0.09-6.54 0.09-6.99 0-13.99-0.04-20.99-0.06-0.16 0-0.33 0.06-0.49 0.09l0.02 0.02c-0.88-2.37-0.88-4.75 0-7.12l-0.03 0.02c8.56-0.01 17.13-0.02 25.69-0.03 0.73 0 1.45 0.02 2.18 0.03l-0.01-0.03c0.21 0.09 0.43 0.22 0.47 0.44 0.33 2.19 0.69 4.38-0.29 6.51l-0.01 0.04z"/>
		<path class="st13" d="m86.35 169.54c0.48 0.21 0.99 0.14 1.49 0.14 3.69 0.01 7.39 0.01 11.08 0 0.44 0 0.9 0.07 1.32-0.14 0 2.02-0.03 4.05 0.02 6.07 0.02 0.8-0.22 1.07-1.05 1.06-3.94-0.04-7.87-0.04-11.81 0-0.82 0.01-1.06-0.27-1.05-1.07 0.04-2.02 0-4.04 0-6.06z"/>
		<path class="st14" d="m155.91 169.54c0.59 0.24 1.22 0.14 1.83 0.14 3.47 0.01 6.94 0.01 10.41 0 0.56 0 1.12 0.09 1.66-0.14-0.01 2.03-0.05 4.05-0.01 6.08 0.02 0.8-0.23 1.07-1.05 1.07-3.94-0.04-7.88-0.04-11.81 0-0.82 0.01-1.06-0.27-1.04-1.07 0.04-2.03 0.01-4.06 0.01-6.08z"/>
		<path class="st9" d="m100.23 93.24c-0.01-2.37-0.02-4.75-0.03-7.12 4.63 0.14 9.26 0.07 13.89 0.03l-0.03-0.03c0.82 2.37 0.65 4.75 0.11 7.14-0.41 0.35-0.91 0.45-1.42 0.45-3.77 0.05-7.54 0.07-11.31-0.01-0.34-0.01-0.67-0.09-0.97-0.26-0.08-0.05-0.16-0.12-0.24-0.2z"/>
		<path class="st3" d="m155.96 86.12c-0.01 2.37-0.03 4.75-0.04 7.12-0.08 0.07-0.17 0.15-0.25 0.22-0.79 0.39-1.64 0.29-2.48 0.3-2.97 0.01-5.94 0.01-8.91 0-0.78-0.01-1.58 0.06-2.27-0.44-0.61-2.39-0.69-4.78 0.05-7.17 4.63 0.06 9.27 0.1 13.9-0.03z"/>
		<path class="st3" d="m169.79 86.16c-2.56 0.25-5.12 0.09-7.68 0.1-2.06 0.01-4.12 0.15-6.18-0.1-0.01-1.9 0.01-3.8-0.03-5.7-0.02-0.73 0.1-1.12 0.99-1.11 3.97 0.04 7.94 0.04 11.92 0 0.87-0.01 1.01 0.37 0.99 1.11-0.04 1.89-0.01 3.79-0.01 5.7z"/>
		<path class="st3" d="m100.22 169.57c0-2.27 0.01-4.53 0.01-6.79 0.08-0.07 0.17-0.14 0.25-0.22 0.2-0.1 0.41-0.17 0.62-0.21 3.74-0.18 7.48-0.09 11.22-0.06 1.77 0.02 2.25 0.46 2.22 2.19-0.02 1.69 0.5 3.47-0.5 5.07h0.01c-4.61 0.17-9.22 0.13-13.83 0.02z"/>
		<path class="st3" d="m142.11 169.53c-0.03-2.06-0.05-4.11-0.07-6.17-0.14-0.83 0.5-0.99 1.03-0.99 4.2-0.03 8.41-0.41 12.61 0.19 0.08 0.07 0.16 0.15 0.25 0.22 0.01 2.27 0.01 4.53 0.02 6.8-4.62 0.09-9.23 0.17-13.84-0.05z"/>
		<path class="st3" d="m100.22 86.15c-1.77 0.25-3.55 0.11-5.33 0.1-2.72-0.01-5.45 0.13-8.17-0.08-0.31-2.25-0.28-4.49-0.02-6.74 4.19-0.03 8.38-0.03 12.57-0.1 0.9-0.01 0.99 0.39 0.98 1.11-0.03 1.91-0.02 3.81-0.03 5.71z"/>
		<path class="st4" d="m86.71 79.44c0.01 2.25 0.01 4.49 0.02 6.74-0.49 0.45-0.31 1.05-0.32 1.59-0.02 1.52-0.04 3.04 0.01 4.56 0.02 0.74-0.26 0.98-0.98 0.96-1.52-0.04-3.04-0.02-4.56 0-0.54 0.01-1.14-0.18-1.58 0.34-0.08-0.07-0.11-0.14-0.09-0.21 0.02-0.08 0.05-0.11 0.07-0.11 0.02-1.9 0.03-3.79 0.05-5.69 0.02-1.39 0.02-1.4 1.35-1.41 1.34-0.01 2.68 0 4.02 0 1.9 0 1.65 0.1 1.66-1.75 0.01-1.4-0.01-2.79 0.01-4.19 0.01-0.32-0.15-0.72 0.34-0.83z"/>
		<path class="st2" d="m183.63 141.86c0.01 2.01-0.02 4.03 0.04 6.04 0.02 0.82-0.26 1.06-1.06 1.04-2.01-0.05-4.02-0.03-6.04-0.03l0.02 0.03c-1.01-2.35-0.8-4.73-0.11-7.11 2.39-0.75 4.78-0.87 7.16 0.05l-0.01-0.02z"/>
		<path class="st4" d="m176.54 107.32c0.06-0.07 0.11-0.15 0.13-0.24 1.95 0 3.89 0.04 5.84 0 0.83-0.02 1.2 0.18 1.17 1.1-0.07 2-0.05 4-0.07 6l0.03-0.02c-2.19 0.98-4.45 0.5-6.7 0.33-0.21-0.09-0.39-0.22-0.53-0.39-0.57-2.27-0.75-4.54 0.13-6.78z"/>
		<path class="st13" d="m79.26 162.78c2 0.01 4 0.05 6 0.02 0.84-0.02 1.19 0.21 1.15 1.11-0.07 1.89-0.04 3.78-0.05 5.67-2.02 0.02-4.04 0.03-6.06 0.08-0.71 0.02-0.99-0.25-0.99-0.98 0.02-1.97-0.03-3.94-0.05-5.9z"/>
		<path class="st3" d="m79.3 107.11c0.03 0.09 0.08 0.17 0.14 0.24 0.54 2.29 0.67 4.57-0.11 6.84-2.28 0.78-4.55 0.83-6.82-0.03l0.02 0.01c-0.01-1.97-0.04-3.93-0.03-5.9 0-1.15 0.03-1.16 1.24-1.17 1.85-0.01 3.7 0 5.56 0.01z"/>
		<path class="st3" d="m79.27 155.72c0.18 2.36 0.14 4.73 0.02 7.09-1.91 0-3.82-0.04-5.72 0-0.75 0.01-1.13-0.13-1.09-1 0.06-1.68 0.06-3.37 0-5.05-0.03-0.82 0.27-1.06 1.07-1.04 1.9 0.04 3.81 0 5.72 0z"/>
		<path class="st8" d="m176.55 93.24c-1.89 0.01-3.78-0.02-5.67 0.05-0.9 0.03-1.13-0.31-1.11-1.16 0.04-2 0-4 0-6.01 1.94 0.02 3.89 0.08 5.83 0.05 0.82-0.01 1.07 0.3 1.05 1.07-0.06 2-0.07 4-0.1 6z"/>
		<path class="st3" d="m114.07 79.37c-1.96 0-3.91-0.02-5.87 0.03-0.71 0.02-0.99-0.21-0.97-0.94 0.04-1.73 0.04-3.47 0-5.2-0.02-0.73 0.26-0.96 0.98-0.95 1.95 0.03 3.91 0.01 5.87 0.01l-0.03-0.03c0.14 0.16 0.25 0.34 0.34 0.54 0.13 2.2 0.62 4.42-0.34 6.56l0.02-0.02z"/>
		<path class="st3" d="m142.06 72.27c1.95 0.01 3.91 0.05 5.86 0.03 0.7-0.01 1 0.2 0.98 0.94-0.04 1.73-0.04 3.46 0 5.19 0.02 0.72-0.23 0.97-0.95 0.96-1.95-0.03-3.91 0-5.86 0-0.78-2.36-0.74-4.74-0.03-7.12z"/>
		<path class="st3" d="m79.28 93.3c0 0.11 0.01 0.22 0.02 0.32 0.1 2.23 0.16 4.46-0.03 6.68-1.91 0-3.82-0.04-5.72 0-0.79 0.02-1.1-0.21-1.07-1.04 0.05-1.68 0.04-3.37 0.01-5.05-0.01-0.67 0.13-1.03 0.91-1 1.95 0.07 3.92 0.06 5.88 0.09z"/>
		<path class="st3" d="m114.08 176.63v7.12c-1.54-0.42-3.11-0.1-4.66-0.19-0.45-0.03-0.9-0.02-1.34-0.01-0.54 0.02-0.82-0.18-0.82-0.76 0.01-1.74 0.03-3.47-0.01-5.2-0.02-0.74 0.24-0.96 0.96-0.95 1.95 0.02 3.91-0.01 5.87-0.01z"/>
		<path class="st3" d="m169.78 169.57c0-1.86-0.01-3.71 0.01-5.57 0.01-1.16 0.03-1.18 1.23-1.19 1.86-0.01 3.71 0 5.57 0.01 0.01 1.96 0 3.92 0.05 5.88 0.02 0.74-0.28 0.97-0.98 0.96-1.96-0.06-3.92-0.06-5.88-0.09z"/>
		<path class="st3" d="m142.08 183.58c-0.18-2.31 0.14-4.64-0.17-6.95 2.01 0 4.02 0.03 6.03 0 0.7-0.01 1 0.18 0.97 0.94-0.05 1.67-0.04 3.35 0 5.03 0.01 0.72-0.25 0.98-0.97 0.97-1.96-0.03-3.91 0-5.86 0.01z"/>
		<path class="st4" d="m79.29 148.95c-1.91-0.01-3.82-0.04-5.73-0.01-0.77 0.01-1.12-0.18-1.09-1.03 0.07-1.9 0.07-3.81 0.09-5.72 1.99-0.87 4.04-0.47 6.07-0.26 0.45 0.05 0.72 0.5 0.91 0.92 0.26 2.05 0.69 4.11-0.29 6.1h0.04z"/>
		<path class="st3" d="m176.87 93.3c2.14-0.11 4.28-0.1 6.41-0.01 0.36 2 0.07 4.01 0.16 6.01 0.03 0.67-0.32 0.85-0.93 0.85-1.62-0.02-3.25-0.02-4.87 0-0.6 0.01-0.97-0.16-0.94-0.84 0.1-2-0.18-4.02 0.17-6.01z"/>
		<path class="st15" d="m142.06 72.27c0.01 2.37 0.02 4.75 0.03 7.12l-0.03 6.75c0.01 2.36 0.03 4.72 0.04 7.08-0.9-0.1-0.77-0.85-0.83-1.41-0.12-1-0.09-2.02-0.04-3.03 0.05-1.3-0.52-1.8-1.8-1.79-3.37 0.03-6.74 0.01-10.11 0.01-4.16 0-8.31-0.02-12.47 0.01-1.75 0.01-1.89 0.19-1.93 1.96-0.03 0.95 0.07 1.91-0.06 2.86-0.07 0.54 0.1 1.33-0.85 1.36 0.01-2.35 0.02-4.71 0.03-7.06 8.71 0 17.42 0.01 26.13 0.01 1.58 0 1.59-0.01 1.59-1.54 0.01-1.74-0.01-3.48-0.02-5.22-0.88-1.21-0.47-2.59-0.52-3.91-0.08-2.17-0.14-2.29-2.27-2.31-5.93-0.03-11.85 0.05-17.78-0.04-1.78 0.07-3.55 0.03-5.33 0.02-0.61-0.01-1.23 0-1.73-0.46-0.02-0.13-0.04-0.27-0.06-0.4 2.46-0.01 4.93-0.02 7.39-0.03 6.33 0 12.66 0.01 18.99 0 1.32 0 1.32-0.03 1.34-1.44 0.02-1.73 0.03-3.47 0.05-5.21 0.45 0.66 0.2 1.41 0.22 2.11 0.05 1.53 0.02 3.05 0.02 4.56z"/>
		<path class="st8" d="m176.87 93.3c0 1.79-0.02 3.58 0.01 5.37 0.02 1.27 0.05 1.28 1.36 1.31 1.23 0.02 2.46 0.02 3.69 0 1.31-0.02 1.33-0.04 1.35-1.31 0.02-1.79 0.01-3.58 0.01-5.37 0.28 0.02 0.36 0.2 0.36 0.44 0 1.9-0.01 3.81 0.02 5.71 0.01 0.66-0.26 0.87-0.89 0.86-2.01-0.02-4.03 0.01-6.04 0.02-0.22-1.71-0.04-3.42-0.1-5.13-0.02-0.66-0.07-1.32-0.11-1.98 0.11 0.02 0.23 0.05 0.34 0.08z"/>
		<path class="st2" d="m79.29 142.87c-0.43-0.46-0.89-0.72-1.58-0.69-1.71 0.06-3.42 0.02-5.13 0.02l-0.06-0.33-0.01 0.01c2.19-0.94 4.42-0.65 6.65-0.17 0.38 0.34 0.42 0.73 0.13 1.16z"/>
		<path class="st3" d="m86.3 107.32c0.23-1.83 0.06-3.67 0.1-5.5 0.03-1.59-0.08-1.51 1.58-1.51 1.84 0.01 3.67 0.01 5.51 0.02 0.07 0.09 0.15 0.17 0.22 0.26 0.44 0.96 0.29 1.99 0.29 3 0.01 2.92 0.05 5.85-0.02 8.78-0.04 1.87-0.46 2.33-2.32 2.3-1.77-0.03-3.6 0.45-5.31-0.44-0.84-2.3-0.77-4.61-0.05-6.91z"/>
		<path class="st16" d="m93.48 100.33c-0.02-2.02 0-4.04-0.07-6.05-0.03-0.84 0.33-1.04 1.09-1.02 1.91 0.03 3.81 0 5.72-0.01l-0.03-0.03c1.03 2.13 0.53 4.36 0.36 6.56-0.03 0.47-0.42 0.85-0.89 0.89-2.09 0.18-4.2 0.66-6.22-0.36l0.04 0.02z"/>
		<path class="st3" d="m162.67 100.34c1.95-0.01 3.9-0.03 5.86-0.02 1.23 0.01 1.24 0.02 1.26 1.32 0.03 1.89 0.05 3.79 0.07 5.68 0.72 2.29 0.74 4.58-0.02 6.88-2.15 0.93-4.38 0.5-6.59 0.32-0.62-0.05-0.97-0.62-0.98-1.21-0.08-4.24-0.42-8.48 0.18-12.71 0.07-0.09 0.14-0.18 0.22-0.26z"/>
		<path class="st14" d="m155.92 93.24c1.85 0.01 3.71 0.01 5.56 0.03 1.22 0.01 1.25 0.03 1.25 1.17 0 1.97-0.04 3.93-0.07 5.9l0.03-0.03c-2.02 1.02-4.14 0.54-6.23 0.36-0.47-0.04-0.85-0.42-0.89-0.89-0.17-2.2-0.67-4.42 0.36-6.56l-0.01 0.02z"/>
		<path class="st13" d="m93.48 155.68c-2.06 0.23-4.13 0.03-6.19 0.11-0.8 0.03-0.89-0.4-0.9-1.04-0.03-1.95 0.14-3.9-0.1-5.85-0.71-2.36-0.72-4.72 0.03-7.07 2.13-0.92 4.33-0.43 6.51-0.36 0.63 0.15 1.02 0.58 1.04 1.18 0.11 4.26 0.42 8.53-0.16 12.78-0.08 0.08-0.16 0.17-0.23 0.25z"/>
		<path class="st3" d="m100.23 162.78c-1.95 0.01-3.9 0-5.85 0.04-0.72 0.02-0.98-0.23-0.96-0.96 0.05-2.06 0.05-4.12 0.06-6.19l-0.03 0.04c0.42-0.39 0.94-0.48 1.49-0.49 1.8 0.09 3.66-0.46 5.4 0.44 0.51 2.39 0.71 4.77-0.14 7.14l0.03-0.02z"/>
		<path class="st14" d="m169.87 148.9c-0.2 1.9-0.07 3.8-0.07 5.7 0 0.81-0.16 1.24-1.09 1.19-2.01-0.1-4.03 0.11-6.04-0.12-0.07-0.09-0.14-0.17-0.22-0.26-0.44-0.96-0.29-1.99-0.29-2.99-0.01-2.98-0.06-5.95 0.02-8.93 0.05-1.69 0.47-2.15 2.12-2.14 1.83 0.01 3.7-0.43 5.47 0.41 0.89 2.37 0.77 4.75 0.1 7.14z"/>
		<path class="st14" d="m162.67 155.68c0.03 2.06 0.03 4.13 0.09 6.2 0.02 0.74-0.26 0.96-0.97 0.94-1.95-0.05-3.91-0.03-5.86-0.05l0.03 0.03c-1.03-2.13-0.53-4.36-0.36-6.56 0.04-0.48 0.42-0.85 0.89-0.89 2.09-0.18 4.2-0.66 6.23 0.36l-0.05-0.03z"/>
		<path class="st7" d="m162.7 155.72c-1.73 0.02-3.45 0.05-5.18 0.06-1.57 0.02-1.59 0.01-1.59 1.51-0.01 1.84 0.01 3.68 0.01 5.52-4.21 0-8.42-0.02-12.63 0.02-0.43 0-1.2-0.46-1.28 0.53-0.28 1.72-0.09 3.46-0.12 5.19-0.02 0.7-0.1 1.15-0.99 1.14-8.85-0.04-17.7-0.04-26.55-0.05-0.11 0-0.22-0.05-0.32-0.08 0.02-1.9 0-3.79 0.08-5.69 0.04-0.96-0.4-1.08-1.19-1.07-3.52 0.03-7.03 0.02-10.55 0.01-0.61 0-1.22-0.05-1.84-0.07-0.37-1.81-0.04-3.64-0.17-5.46-0.04-0.51 0.29-1.11-0.27-1.53-1.76 0.06-3.53 0.12-5.29-0.03-0.61-0.71-0.49-1.58-0.5-2.4-0.02-3.3 0.05-6.6-0.05-9.9-0.02-0.81 0.22-2.2-1.48-1.57-2.14 0.12-4.28 0.1-6.43 0.01l0.02 0.03c-0.57-0.65-0.55-1.45-0.55-2.24-0.01-7.75-0.01-15.51 0-23.26 0-0.79-0.02-1.59 0.56-2.23l-0.02 0.04c1.85 0 3.7-0.01 5.56-0.01 1.7 0 1.51 0.01 1.51-1.58 0.01-4.1 0.01-8.19 0.02-12.29 1.91 0 3.83-0.02 5.74 0.03 0.79 0.02 1.1-0.22 1.08-1.04-0.06-2.02-0.05-4.05-0.06-6.07 4.61 0.09 9.22 0.13 13.83-0.02 0.51-0.45 0.28-1.05 0.3-1.58 0.03-1.4 0.02-2.8 0.01-4.21-0.01-0.62 0.24-0.95 0.89-0.92 0.34 0.01 0.67 0 1.01 0h23.72 0.51c1.26 0.03 1.27 0.03 1.29 1.34 0.02 1.4-0.01 2.8 0.01 4.2 0.01 0.42-0.18 0.92 0.35 1.2 4.62 0.08 9.23 0.1 13.85-0.01 0 2.02 0.02 4.04-0.03 6.05-0.02 0.81 0.26 1.08 1.06 1.06 1.91-0.04 3.81-0.02 5.72-0.02 0.01 4.15 0.02 8.29 0.04 12.44 0.01 1.42 0.02 1.43 1.49 1.43 1.85 0.01 3.7 0.01 5.55 0.01l-0.02-0.04c0.58 0.65 0.56 1.45 0.56 2.23 0.01 7.75 0.01 15.51 0 23.26 0 0.79 0.02 1.59-0.55 2.24l0.02-0.03c-1.84 0.02-3.68 0.04-5.53 0.05-1.51 0.02-1.51 0.02-1.52 1.58-0.05 4.06-0.06 8.14-0.08 12.22z"/>
		<path class="st6" d="m72.51 114.16c2.26 0.01 4.51 0.01 6.76 0.02l-0.02-0.03c0.49 0.54 0.55 1.22 0.55 1.9 0.02 5.66 0.02 11.33 0 17 0 0.56-0.04 1.12-0.33 1.63-0.48 0.58-1.16 0.61-1.81 0.59-1.7-0.05-3.4 0.25-5.09-0.14-0.02-6.26-0.03-12.52-0.05-18.78 0-0.74 0-1.47-0.01-2.19z"/>
		<path class="st17" d="m72.57 135.12c0.56-0.35 1.18-0.29 1.8-0.3 1.63-0.01 3.26-0.03 4.89-0.05 0.89 2.37 0.85 4.74 0.01 7.11h0.04c-2.27 0-4.54 0-6.81-0.01 0.03-2.25 0.05-4.5 0.07-6.75z"/>
		<path class="st6" d="m176.52 114.18c0.13 0.02 0.25 0.04 0.38 0.06 0.87 1.28 0.4 2.73 0.47 4.1 0.09 1.97 0.12 2 2.13 2.09 1.37 0.06 2.82-0.39 4.1 0.48l0.06 14.76c0.01 2.07-0.01 4.14-0.02 6.21l-7.11-0.03 0.01 0.04c-0.58-0.65-0.55-1.45-0.55-2.23-0.01-7.75-0.01-15.5 0-23.25 0-0.79-0.02-1.59 0.56-2.23h-0.03z"/>
		<path class="st17" d="m183.6 120.91c-1.91 0.02-3.82 0.02-5.73 0.05-0.72 0.02-1-0.28-0.99-1 0.02-1.91 0.01-3.82 0.01-5.73 2.24-0.03 4.49-0.05 6.74-0.08-0.01 2.26-0.02 4.51-0.03 6.76z"/>
		<path class="st6" d="m121.17 72.62c6.39-0.01 12.77-0.02 19.16-0.02 1.38 0 1.4 0.03 1.41 1.39 0.02 1.79 0.01 3.58 0.01 5.38-6.87-0.01-13.75-0.03-20.62-0.04-0.79-2.24-0.83-4.47 0.04-6.71z"/>
		<path class="st18" d="m121.17 72.62c-0.01 2.24-0.02 4.48-0.03 6.71-2.36 0.02-4.72 0.04-7.08 0.05 0.02-2.23 0.04-4.47 0.07-6.71 2.34-0.3 4.69-0.21 7.04-0.05z"/>
		<path class="st17" d="m138.1 183.36c-0.84-0.08-2.08 0.41-2.78-0.21-0.8-0.71-0.22-2.01-0.3-3.05-0.06-0.72 0.01-1.46-0.01-2.19-0.03-0.74 0.33-0.98 1.03-0.97 1.57 0.02 3.15 0.03 4.72 0 0.74-0.01 0.97 0.32 0.96 1.02-0.03 1.52-0.03 3.03 0 4.55 0.01 0.66-0.29 0.89-0.91 0.87-0.86-0.04-1.7-0.02-2.71-0.02z"/>
		<path class="st6" d="m100.11 155.74c0.6 0.28 0.44 0.84 0.44 1.32 0.02 1.89 0 3.79 0 5.68-0.12 0.02-0.24 0.05-0.35 0.08 0.03-2.37 0.18-4.73-0.09-7.08z"/>
		<path class="st4" d="m79.27 141.88c0.17-2.37 0.19-4.74-0.01-7.11 0.03-0.11 0.09-0.21 0.09-0.32 0-6.66 0-13.32-0.01-19.98 0-0.11-0.06-0.22-0.08-0.32h7.13c0 9.24-0.01 18.49-0.01 27.73h-7.11z"/>
		<path class="st3" d="m176.56 114.16c0.02 8.63 0.05 17.25 0.07 25.88 0 0.61-0.05 1.23-0.08 1.84h-6.77c0-9.24-0.01-18.49-0.01-27.73 2.26 0 4.52 0 6.79 0.01z"/>
		<path class="st6" d="m92.78 141.83c0.09-0.74 0.64-0.67 1.15-0.62s0.81 0.37 0.85 0.88c0.03 0.39 0.03 0.78 0.03 1.17v12.44c-0.46 0.12-0.91 0.11-1.37 0.02 0-4.14 0-8.28-0.03-12.42 0-0.55 0.31-1.3-0.63-1.47z"/>
	
	
		<path class="st19" d="m113.32 120.61v-3.62h3.65v-7.32h3.65v-3.7h3.64l-0.01-0.02v3.72h-3.58v7.26h14.59v-2.22c-0.01-1.69-0.03-3.38-0.05-5.07l-0.03 0.02h3.72v7.29h3.67v3.66l0.02-0.01c-0.23 0.01-0.46 0.03-0.69 0.03h-21.3c-2.44 0-4.87-0.02-7.31-0.03l0.03 0.01z"/>
		<path class="st19" d="m142.58 142.62v3.6h-29.26v-3.6l-0.02 0.01c0.17-0.01 0.34-0.03 0.52-0.03h22.39c2.13 0 4.26 0.02 6.39 0.03l-0.02-0.01z"/>
		<path class="st19" d="m113.32 142.62h-3.64v-22.01h3.64l-0.02-0.01v22.04l0.02-0.02z"/>
		<path class="st19" d="m142.58 120.61h3.64v22.01h-3.64l0.02 0.01v-22.04l-0.02 0.02z"/>
		<path class="st19" d="m124.26 105.97v-3.6h7.37v3.59l0.02-0.01h-7.4l0.01 0.02z"/>
		<path class="st19" d="m131.63 105.96h3.56v3.7l0.03-0.02h-3.57v-3.69l-0.02 0.01z"/>
		<path class="st19" d="m124.26 127.99v-3.66h7.37v3.66l0.01-0.02h-7.39l0.01 0.02z"/>
		<path class="st19" d="m131.63 135.24v3.66h-7.37v-3.66l-0.01 0.02h7.39l-0.01-0.02z"/>
		<path class="st19" d="m124.26 135.24h-3.6v-7.24h3.6l-0.01-0.02v7.28l0.01-0.02z"/>
		<path class="st19" d="m131.63 127.99h3.6v7.24h-3.59l0.01 0.02v-7.28l-0.02 0.02z"/>
	

</svg>
